# xmcd CD database file
#
# Track frame offsets:
#	150
#	17798
#	33105
#
# Disc length: 705 seconds
#
# Revision: 0
# Processed by: cddbd v1.5PL3 Copyright (c) Steve Scherf et al.
# Submitted via: CDex 1.50beta10
#
DISCID=1702bf03
DTITLE=konami - pop'n music9 SOUNDTRACKS
DYEAR=2004
DGENRE=Vocal
TTITLE0=LAZY GIRL 〜original long version〜
TTITLE1=Tokyo Traffic Report
TTITLE2=CLOVER 〜original long version〜
EXTD=YEAR: 2004
EXTT0=
EXTT1=
EXTT2=
PLAYORDER=
